<?xml version="1.0" encoding="UTF-8" standalone="no"?>
<!DOCTYPE svg PUBLIC "-//W3C//DTD SVG 1.1//EN" "http://www.w3.org/Graphics/SVG/1.1/DTD/svg11.dtd">
<svg width="100%" height="100%" viewBox="0 0 1024 1024" version="1.1" xmlns="http://www.w3.org/2000/svg" xmlns:xlink="http://www.w3.org/1999/xlink" xml:space="preserve" xmlns:serif="http://www.serif.com/" style="fill-rule:evenodd;clip-rule:evenodd;stroke-linejoin:round;stroke-miterlimit:2;">
    <g transform="matrix(1,0,0,1,-1118.09,0)">
        <g id="Artboard1" transform="matrix(1,0,0,1,1118.09,0)">
            <rect x="0" y="0" width="1024" height="1024" style="fill:none;"/>
            <g transform="matrix(1,0,0,1,-1118.09,0)">
                <path d="M1264,688C1264,688 1236.34,563.779 1324,526C1411.66,488.221 1358.18,487.191 1425.07,478C1491.95,468.809 1693.58,443.777 1670,442C1646.42,440.223 1732.49,461.637 1825,338C1825,338 1984.11,287.527 1984,288C1979.13,308.227 1628.64,293.419 1630.09,274C1630.33,270.844 1345,383.342 1345,383.342L1262,465.572C1229.33,510.924 1211.98,559.717 1228,616L1254,698L1264,688Z" style="fill:rgb(255,247,0);"/>
            </g>
            <g transform="matrix(2.06622,0,0,2.07733,-611.613,-591.898)">
                <path d="M506.031,511.892C504.636,512.029 503.253,512.171 501.872,512.322C482.865,514.398 463.787,515.933 445.091,520.318C440.431,521.411 437.028,523.483 434.384,527.597C428.893,536.14 422.975,544.409 417.217,552.78C416.395,553.975 415.861,555.503 413.776,555.83C411.241,552.305 411.288,547.819 409.955,543.829C407.497,536.472 405.616,535.667 399.494,540.272C375.009,558.687 368.379,583.672 373.907,611.071C375.709,619.996 382.511,625.244 390.851,628.564C409.805,636.109 426.757,646.78 440.961,661.539C445.414,666.167 449.265,671.287 451.874,677.383C449.49,678.28 448.621,676.744 447.55,675.889C431.166,662.815 412.627,654.025 392.625,648.104C388.081,646.759 383.883,646.512 380.123,650.228C378.287,652.042 375.67,652.517 373.105,652.266C368.459,651.811 365.167,653.875 362.395,657.386C349.538,673.674 339.358,691.234 335.982,712.095C335.775,713.373 335.355,714.617 334.386,715.979C332.335,712.45 331.949,708.525 331.7,704.585C330.388,683.845 337.187,665.198 347.076,647.547C350.394,641.624 352.352,635.37 354.378,629.055C355.503,625.546 353.364,622.575 352.199,619.531C345.529,602.106 341.614,584.1 341.786,565.437C342.004,541.843 349.271,520.266 362.223,500.637C364.917,496.554 367.372,492.461 368.63,487.747C370.034,482.489 373.173,478.968 378.37,477.284C380.29,476.662 382.026,475.782 383.328,474.106C391.639,463.41 402.346,455.443 413.698,448.415C429.981,438.335 446.67,428.912 462.959,418.843C474.647,411.618 485.325,403.172 492.372,390.911C499.535,378.448 502.52,365.333 499.38,351.097C499.1,349.827 498.436,348.574 499.328,346.922C501.821,346.42 503.935,347.985 506.071,348.991C529.001,359.794 545.776,377.262 558.904,398.491C561.028,401.927 563.293,403.846 567.343,404.323C577.734,405.548 587.3,409.3 596.391,414.428C615.202,425.04 635.647,427.377 656.786,426.191C684.545,424.634 712.125,421.13 739.797,418.634C745.116,418.154 750.413,417.43 755.721,416.819L756.065,418.604C743.321,421.89 730.577,425.176 717.435,428.571C693.536,434.605 669.982,440.339 646,448.019C649.466,449.198 652.381,447.943 655.628,449.662C643.305,456.519 633.368,465.618 622.534,473.515C609.448,483.053 596.216,492.286 580.861,497.92C569.096,502.236 556.903,504.963 544.604,507.077C540.916,507.711 539.164,509.577 537.464,512.399C536.045,514.756 534.579,517.065 533.068,519.327C523.093,546.741 496.296,571.683 466.559,575.779C467.897,574.75 469.201,573.703 470.469,572.64C474.35,568.98 478.162,565.301 481.887,561.567C494.364,547.502 502.123,530.959 506.031,511.892ZM644.603,437.389C630.425,438.572 616.258,437.714 601.41,436.275C603.579,441.359 603.921,445.373 599.9,448.43C597.265,450.433 594.389,450.617 591.497,448.872C585.92,445.505 587.705,440.489 589.017,435.494C576.315,433.11 564.065,434.931 551.821,435.725C549.477,435.877 548.008,437.5 546.92,439.538C541.745,449.235 540.854,459.143 545.527,469.261C550.007,478.961 562.726,487.023 571.85,484.531C579.97,482.314 588.159,480.727 596.285,478.801C607.348,476.178 615.985,468.297 624.354,460.15L594.627,466.218L594.117,464.664C612.58,449.166 636.162,444.897 657.952,436.57C653.825,437.248 649.696,437.385 644.603,437.389ZM356.015,599.571C356.637,601.86 356.916,604.284 358.892,607.304C359.558,600.446 359.926,594.669 360.708,588.948C364.37,562.127 376.98,541.035 400.656,527.118C421.157,515.067 443.817,510.002 467.002,506.706C492.024,503.149 517.271,501.24 542.142,496.604C547.351,495.633 552.805,495.409 558.49,492.899C532.655,480.791 527.193,461.563 537.296,436.369C535.58,436.369 534.591,436.234 533.651,436.39C525.942,437.666 518.184,438.727 510.548,440.355C473.12,448.339 437.534,461.051 405.545,482.529C390.083,492.91 376.418,505.239 366.209,521.082C350.551,545.384 348.872,571.511 356.015,599.571Z"/>
            </g>
        </g>
    </g>
</svg>
