<?xml version="1.0" encoding="UTF-8" standalone="no"?>
<!DOCTYPE svg PUBLIC "-//W3C//DTD SVG 1.1//EN" "http://www.w3.org/Graphics/SVG/1.1/DTD/svg11.dtd">
<svg width="100%" height="100%" viewBox="0 0 1024 1024" version="1.1" xmlns="http://www.w3.org/2000/svg" xmlns:xlink="http://www.w3.org/1999/xlink" xml:space="preserve" xmlns:serif="http://www.serif.com/" style="fill-rule:evenodd;clip-rule:evenodd;stroke-linejoin:round;stroke-miterlimit:2;">
    <g transform="matrix(1,0,0,1,-1118.09,0)">
        <path d="M1988.86,298.386C1939.48,310.921 1890.81,322.833 1841.26,338.786C1848.42,341.235 1854.44,338.629 1861.15,342.198C1835.69,356.443 1815.16,375.344 1792.77,391.749C1765.73,411.564 1738.39,430.744 1706.67,442.447C1682.36,451.412 1657.16,457.078 1631.75,461.47C1624.13,462.787 1620.51,466.662 1617,472.524C1585.01,525.913 1541.82,567.585 1487.25,597.24C1484.31,598.837 1481.6,601.248 1475.15,600.894C1517.52,560.984 1556.12,520.176 1585.32,468.428C1569.75,469.878 1556.58,470.922 1543.46,472.364C1504.18,476.678 1464.77,479.867 1426.14,488.974C1416.51,491.245 1409.48,495.55 1404.01,504.097C1392.67,521.843 1380.44,539.021 1368.54,556.409C1366.84,558.891 1365.74,562.066 1361.43,562.745C1356.19,555.422 1356.29,546.103 1353.54,537.816C1348.46,522.532 1344.57,520.861 1331.92,530.425C1281.33,568.68 1267.63,620.583 1279.06,677.499C1282.78,696.04 1296.83,706.941 1314.06,713.838C1353.23,729.512 1388.26,751.679 1417.6,782.338C1426.8,791.951 1434.76,802.588 1440.15,815.252C1435.23,817.115 1433.43,813.923 1431.22,812.147C1397.36,784.988 1359.06,766.729 1317.73,754.429C1308.34,751.635 1299.67,751.123 1291.9,758.841C1288.11,762.609 1282.7,763.597 1277.4,763.075C1267.8,762.131 1261,766.417 1255.27,773.712C1228.7,807.547 1207.67,844.025 1200.69,887.361C1200.27,890.015 1199.4,892.598 1197.39,895.428C1193.16,888.096 1192.36,879.943 1191.85,871.758C1189.13,828.675 1203.18,789.939 1223.62,753.273C1230.47,740.968 1234.52,727.976 1238.7,714.858C1241.03,707.569 1236.61,701.397 1234.2,695.074C1220.42,658.875 1212.33,621.471 1212.69,582.703C1213.13,533.689 1228.15,488.867 1254.91,448.091C1260.48,439.61 1265.55,431.106 1268.15,421.315C1271.05,410.391 1277.54,403.077 1288.28,399.58C1292.24,398.288 1295.83,396.459 1298.52,392.978C1315.69,370.758 1337.82,354.208 1361.27,339.609C1394.92,318.67 1429.4,299.095 1463.06,278.177C1487.2,263.169 1509.27,245.623 1523.83,220.153C1538.63,194.264 1544.8,167.02 1538.31,137.448C1537.73,134.809 1536.36,132.207 1538.2,128.773C1543.35,127.732 1547.72,130.982 1552.13,133.072C1599.51,155.513 1634.17,191.8 1661.3,235.9C1665.69,243.037 1670.37,247.024 1678.74,248.015C1700.2,250.559 1719.97,258.353 1738.76,269.007C1777.62,291.052 1819.87,295.905 1863.55,293.442C1920.9,290.207 1977.89,282.928 2035.06,277.743C2046.05,276.747 2057,275.244 2067.97,273.974L2068.68,277.681C2042.34,284.507 2016.01,291.333 1988.86,298.386Z"/>
        <g id="Artboard1" transform="matrix(1,0,0,1,1118.09,0)">
            <rect x="0" y="0" width="1024" height="1024" style="fill:none;"/>
            <g transform="matrix(1.46104,-1.46104,1.4689,1.4689,-1022.91,450.464)">
                <path d="M500.775,493.086C475.472,482.331 449.693,479.364 421.804,485.813C447.922,463.805 497.073,460.804 525.419,476.912C518.717,482.734 512.317,488.396 505.781,493.897C504.279,495.162 502.616,493.867 500.775,493.086Z" style="fill-rule:nonzero;"/>
            </g>
            <g transform="matrix(1,0,0,1,-1436.09,-128)">
                <circle cx="2053.79" cy="452.786" r="12.786" style="fill:white;"/>
            </g>
            <g transform="matrix(1,0,0,1,-1118.09,0)">
                <path d="M1874.83,330.572C1830.96,335.27 1754.1,360.463 1739.57,372.465" style="fill:white;"/>
            </g>
        </g>
    </g>
</svg>
